<svg width="42" height="50" viewBox="0 0 42 50" fill="none" xmlns="http://www.w3.org/2000/svg">
<path d="M38.851 50.0012H2.50048C2.42755 50.0012 2.35431 49.9977 2.28201 49.9924C0.900873 49.8652 -0.114698 48.6471 0.0104252 47.2749L3.04137 13.9416C3.15899 12.6455 4.22868 11.668 5.53031 11.668H35.8212C37.1207 11.6694 38.1901 12.6469 38.3081 13.9415L41.3387 47.2748C41.3452 47.3459 41.3484 47.423 41.3484 47.4996C41.3491 48.8774 40.2295 50.0002 38.851 50.0012ZM5.53031 13.3345C5.09678 13.3345 4.74041 13.6601 4.70137 14.0921L1.67067 47.4264C1.62846 47.8836 1.96765 48.2897 2.42513 48.3312L2.50054 48.3346H38.8501C39.3093 48.3336 39.6819 47.9603 39.6819 47.5004L36.6482 14.0931C36.6092 13.6611 36.2528 13.3355 35.8196 13.3345H5.53031ZM14.009 17.5035C14.0078 17.0439 13.6325 16.6687 13.1737 16.6678L13.1777 15.0013C14.5508 15.0044 15.6716 16.1252 15.6755 17.4987L14.009 17.5035Z" fill="#010101"/>
<path d="M28.1756 20C26.7971 20 25.6755 18.8787 25.6755 17.4999C25.6755 16.1214 26.7968 15.0001 28.1756 15.0001C29.5541 15.0001 30.6754 16.1214 30.6754 17.4999C30.6754 18.8787 29.5541 20 28.1756 20ZM28.1756 16.6666C27.7159 16.6666 27.3421 17.0403 27.3421 17.4999C27.3421 17.9601 27.7159 18.3335 28.1756 18.3335C28.6355 18.3335 29.0089 17.9601 29.0089 17.4999C29.0089 17.0403 28.6355 16.6666 28.1756 16.6666ZM13.1755 20C11.7972 20 10.6757 18.8787 10.6757 17.4999C10.6757 16.1214 11.7969 15.0001 13.1755 15.0001V16.6666C12.7163 16.6666 12.3422 17.04 12.3422 17.4999C12.3422 17.9596 12.7163 18.3335 13.1755 18.3335C13.6349 18.3335 14.009 17.9596 14.009 17.4999H15.6756C15.6756 18.8787 14.5542 20 13.1755 20Z" fill="#010101"/>
<path d="M14.0089 17.5023C14.0077 17.0427 13.6325 16.6676 13.1737 16.6666L13.1776 15.0001C14.5508 15.0032 15.6716 16.1241 15.6755 17.4975L14.0089 17.5023Z" fill="#010101"/>
<path d="M29.0084 15.8334H27.3416V8.33342C27.3416 4.65755 24.3511 1.66682 20.6752 1.66682C16.9993 1.66682 14.0086 4.65755 14.0086 8.33348V15.8334H12.3418V8.33348C12.3418 3.73818 16.08 0 20.6753 0C25.27 0 29.0084 3.73818 29.0084 8.33348V15.8334Z" fill="#010101"/>
</svg>
