<svg width="16" height="18" viewBox="0 0 16 18" fill="none" xmlns="http://www.w3.org/2000/svg">
<path d="M0.75 16.75V15.75C0.75 13.8935 1.4875 12.113 2.80025 10.8003C4.11301 9.4875 5.89348 8.75 7.75 8.75V8.75C9.60652 8.75 11.387 9.4875 12.6997 10.8003C14.0125 12.113 14.75 13.8935 14.75 15.75V16.75" stroke="white" stroke-width="1.5" stroke-linecap="round" stroke-linejoin="round"/>
<path d="M7.75 8.75C8.81087 8.75 9.82828 8.32857 10.5784 7.57843C11.3286 6.82828 11.75 5.81087 11.75 4.75C11.75 3.68913 11.3286 2.67172 10.5784 1.92157C9.82828 1.17143 8.81087 0.75 7.75 0.75C6.68913 0.75 5.67172 1.17143 4.92157 1.92157C4.17143 2.67172 3.75 3.68913 3.75 4.75C3.75 5.81087 4.17143 6.82828 4.92157 7.57843C5.67172 8.32857 6.68913 8.75 7.75 8.75V8.75Z" stroke="white" stroke-width="1.5" stroke-linecap="round" stroke-linejoin="round"/>
</svg>
