<svg width="50" height="50" viewBox="0 0 50 50" fill="none" xmlns="http://www.w3.org/2000/svg">
<g clip-path="url(#clip0_2013_555)">
<path d="M50 3.40569C50.0038 2.4927 49.6515 1.63557 49.0079 0.992015C48.3644 0.348461 47.5056 -0.00329702 46.5943 2.32925e-05C45.684 0.00383189 44.827 0.361547 44.1812 1.00725C43.9077 1.28069 43.4104 1.87131 43.1383 2.19914C43.0703 2.28098 43.0192 2.3754 42.9877 2.47702C42.9562 2.57863 42.9451 2.68544 42.9549 2.79136C42.9647 2.89728 42.9953 3.00023 43.0449 3.09432C43.0945 3.18842 43.1622 3.27182 43.244 3.33977C43.3259 3.40773 43.4203 3.45889 43.5219 3.49036C43.6235 3.52182 43.7303 3.53296 43.8363 3.52314C43.9422 3.51332 44.0451 3.48273 44.1392 3.43312C44.2333 3.38351 44.3167 3.31585 44.3847 3.23401C44.8108 2.72073 45.1631 2.31653 45.3267 2.15286C45.6683 1.81135 46.1208 1.62209 46.6011 1.62004H46.6088C47.0836 1.62004 47.5286 1.80364 47.8624 2.13752C48.198 2.47317 48.3819 2.92112 48.3799 3.39885C48.3778 3.87903 48.1886 4.33157 47.8471 4.67327C47.5413 4.97903 46.4903 5.81272 44.9846 6.86457C44.0938 5.34172 42.4419 4.31584 40.5539 4.31584H28.6922C27.091 4.31584 25.5857 4.93938 24.4534 6.07151L0.743457 29.7818C0.264062 30.2612 0 30.8986 0 31.5765C0 32.2544 0.264062 32.8919 0.743457 33.3712L16.6289 49.2567C17.1238 49.7515 17.7736 49.9988 18.4236 49.9988C19.0736 49.9988 19.7236 49.7514 20.2184 49.2567L43.9285 25.5466C45.0606 24.4144 45.6842 22.9091 45.6842 21.3078V9.44621C45.6842 9.09612 45.6487 8.75432 45.5815 8.42375C47.2955 7.24436 48.5537 6.25774 48.9926 5.81887C49.6385 5.17317 49.9962 4.31614 50 3.40569ZM44.0642 21.3078C44.0642 22.4763 43.6091 23.5748 42.783 24.4009L19.0729 48.1112C18.715 48.4691 18.1324 48.4691 17.7745 48.1112L1.88906 32.2257C1.71572 32.0524 1.62012 31.8218 1.62012 31.5765C1.62012 31.3312 1.71562 31.1007 1.88906 30.9274L25.5991 7.21731C26.4254 6.39114 27.5238 5.93616 28.6922 5.93616H40.5538C41.8858 5.93616 43.047 6.68196 43.6415 7.77786C42.6054 8.46428 41.55 9.12115 40.4767 9.74768C40.4411 9.70853 40.4047 9.67021 40.3674 9.63274C39.0408 8.30618 36.8824 8.30618 35.5559 9.63274C34.2293 10.9593 34.2293 13.1177 35.5559 14.4443C36.2191 15.1075 37.0904 15.4391 37.9616 15.4391C38.8328 15.4391 39.7041 15.1075 40.3674 14.4443C41.2528 13.5588 41.5463 12.3031 41.2498 11.1711C42.2017 10.6164 43.14 10.0387 44.0638 9.4384L44.0641 9.44631V21.3078H44.0642ZM37.2382 12.4025C37.286 12.4975 37.352 12.5822 37.4326 12.6517C37.5131 12.7212 37.6066 12.7742 37.7076 12.8076C37.8086 12.841 37.9152 12.8542 38.0213 12.8463C38.1274 12.8385 38.2309 12.8099 38.326 12.762C38.802 12.5222 39.2742 12.2749 39.7424 12.0202C39.7471 12.4826 39.5742 12.9465 39.2221 13.2987C38.5271 13.9935 37.3967 13.9935 36.7018 13.2987C36.0069 12.6037 36.0069 11.4733 36.7018 10.7783C36.8671 10.6128 37.0636 10.4815 37.2798 10.3921C37.4961 10.3026 37.7279 10.2568 37.9619 10.2572C38.3232 10.2572 38.6835 10.368 38.9908 10.5857C38.5304 10.8361 38.0661 11.0792 37.5979 11.315C37.5029 11.3627 37.4182 11.4287 37.3486 11.5092C37.2791 11.5897 37.2261 11.6832 37.1927 11.7842C37.1593 11.8852 37.1461 11.9917 37.1539 12.0978C37.1617 12.2039 37.1903 12.3074 37.2382 12.4025Z" fill="#010101"/>
<path d="M24.1374 16.5C23.9226 16.5 23.7165 16.5853 23.5646 16.7373C23.4127 16.8892 23.3273 17.0952 23.3273 17.3101V34.4174C23.3273 34.6322 23.4127 34.8383 23.5646 34.9902C23.7165 35.1421 23.9226 35.2274 24.1374 35.2274C24.3522 35.2274 24.5583 35.1421 24.7102 34.9902C24.8621 34.8383 24.9475 34.6322 24.9475 34.4174V17.3101C24.9475 17.0952 24.8621 16.8892 24.7102 16.7373C24.5583 16.5853 24.3522 16.5 24.1374 16.5ZM20.4332 23.4581C19.1067 22.1313 16.9482 22.1314 15.6219 23.458C14.2953 24.7846 14.2953 26.943 15.6219 28.2695C16.2853 28.9329 17.1563 29.2645 18.0276 29.2644C18.8987 29.2644 19.7701 28.9326 20.4333 28.2695C21.076 27.6269 21.4299 26.7726 21.4299 25.8638C21.4299 24.955 21.0759 24.1006 20.4332 23.4581ZM19.2877 27.1238C18.5928 27.8187 17.4623 27.8187 16.7675 27.1238C16.0727 26.4289 16.0727 25.2984 16.7675 24.6035C17.1149 24.2561 17.5713 24.0824 18.0276 24.0824C18.484 24.0824 18.9403 24.2561 19.2878 24.6035C19.4538 24.7686 19.5854 24.965 19.675 25.1813C19.7646 25.3976 19.8104 25.6295 19.8098 25.8637C19.8104 26.0978 19.7645 26.3297 19.6749 26.546C19.5853 26.7623 19.4537 26.9587 19.2877 27.1238ZM32.6528 23.458C31.3263 22.1313 29.1678 22.1314 27.8415 23.458C26.5149 24.7846 26.5149 26.943 27.8415 28.2695C28.5048 28.9328 29.376 29.2644 30.2473 29.2644C31.1185 29.2644 31.9897 28.9328 32.6529 28.2695C33.9794 26.943 33.9794 24.7846 32.6528 23.458ZM31.5072 27.1238C30.8123 27.8187 29.6818 27.8187 28.987 27.1238C28.2922 26.4289 28.2922 25.2984 28.987 24.6035C29.3345 24.2561 29.7908 24.0824 30.2472 24.0824C30.7035 24.0824 31.1599 24.2561 31.5073 24.6035C32.2021 25.2984 32.2021 26.4289 31.5072 27.1238Z" fill="#010101"/>
</g>
<defs>
<clipPath id="clip0_2013_555">
<rect width="50" height="50" fill="white"/>
</clipPath>
</defs>
</svg>
