<svg width="51" height="50" viewBox="0 0 51 50" fill="none" xmlns="http://www.w3.org/2000/svg">
<path d="M49.9369 24.8863C51.1443 22.4976 50.6443 19.6622 48.6928 17.8305L45.8602 15.1718C45.2068 14.5587 44.8074 13.8668 44.603 12.9942L43.7168 9.21199C43.1065 6.606 40.9008 4.7552 38.2283 4.60657L34.3497 4.39081C33.455 4.34103 32.7042 4.06774 31.9868 3.53086L28.8769 1.20295C26.7344 -0.400881 23.8549 -0.401085 21.7122 1.20295L18.6023 3.53075C17.8849 4.06774 17.134 4.34103 16.2394 4.39081L12.3608 4.60657C9.68837 4.7552 7.48267 6.606 6.87223 9.21199L5.98606 12.9943C5.78173 13.8668 5.38225 14.5587 4.72897 15.1719L1.8963 17.8305C-0.0552826 19.6621 -0.555242 22.4976 0.652169 24.8863L2.40473 28.3532C2.809 29.1529 2.94774 29.9398 2.84134 30.8295L2.38025 34.6868C2.06269 37.3443 3.50227 39.8378 5.96259 40.8915L9.53362 42.4209C10.3573 42.7737 10.9693 43.2872 11.4599 44.0371L13.5861 47.2883C15.0509 49.5283 17.7565 50.5131 20.3187 49.7387L24.0372 48.6149C24.8951 48.3556 25.694 48.3557 26.5516 48.6149L30.2702 49.7387C30.839 49.9114 31.4302 49.9995 32.0248 50C33.999 49.9999 35.8712 49.0186 37.0027 47.2883L39.1291 44.0371C39.6195 43.2872 40.2316 42.7735 41.0552 42.4208L44.6263 40.8914C47.0866 39.8377 48.5263 37.3442 48.2086 34.6867L47.7475 30.8293C47.6411 29.9397 47.7799 29.1527 48.1841 28.3531L49.9369 24.8863ZM46.7277 27.6169C46.1792 28.702 45.9827 29.8162 46.1271 31.0232L46.5882 34.8805C46.8227 36.8427 45.8004 38.6132 43.9839 39.3912L40.4129 40.9206C39.2953 41.3992 38.4286 42.1265 37.7632 43.1438L35.6369 46.3951C34.5554 48.0489 32.634 48.7481 30.7425 48.1764L27.0239 47.0526C26.4421 46.8768 25.8685 46.7888 25.2945 46.7888C24.7208 46.7888 24.1469 46.8768 23.5651 47.0526L19.8466 48.1764C17.9551 48.748 16.0338 48.0489 14.9522 46.3951L12.8259 43.1438C12.1604 42.1264 11.2936 41.3991 10.1762 40.9206L6.60517 39.3912C4.78854 38.6133 3.76638 36.8427 4.00091 34.8805L4.462 31.0232C4.60635 29.8161 4.40987 28.7019 3.86136 27.6168L2.10879 24.15C1.21742 22.3863 1.57231 20.373 3.01323 19.0205L5.84589 16.362C6.73227 15.5301 7.29793 14.5503 7.5752 13.3665L8.46137 9.58423C8.91206 7.66019 10.4782 6.34597 12.4514 6.23631L16.3299 6.02055C17.5438 5.95302 18.607 5.56599 19.5802 4.83752L22.6902 2.50962C24.2722 1.32546 26.3168 1.32536 27.8988 2.50962L31.0087 4.83752C31.982 5.56599 33.0453 5.95302 34.259 6.02055L38.1376 6.23631C40.1108 6.34607 41.6769 7.66019 42.1276 9.58434L43.0138 13.3665C43.291 14.5504 43.8568 15.5302 44.7432 16.362L47.5757 19.0205C49.0166 20.3729 49.3715 22.3863 48.4802 24.15L46.7277 27.6169ZM25.2946 8.3151C16.0952 8.3151 8.61102 15.7993 8.61102 24.9987C8.61102 34.1981 16.0952 41.6823 25.2946 41.6823C34.4941 41.6823 41.9782 34.1981 41.9782 24.9987C41.9782 15.7993 34.4941 8.3151 25.2946 8.3151ZM25.2946 40.0501C16.9953 40.0501 10.2432 33.2981 10.2432 24.9987C10.2432 16.6993 16.9953 9.94729 25.2946 9.94729C33.594 9.94729 40.3461 16.6993 40.3461 24.9987C40.3461 33.2981 33.594 40.0501 25.2946 40.0501ZM32.2409 17.4366H32.2288C31.4133 17.4397 30.6485 17.7603 30.0755 18.3392L23.308 25.1741L20.513 22.3791C19.9359 21.8019 19.1683 21.484 18.3518 21.484C17.5352 21.484 16.7678 21.8019 16.1905 22.3792C14.9989 23.5709 14.9989 25.5099 16.1905 26.7015L21.1545 31.6655C21.7503 32.2612 22.533 32.5592 23.3157 32.5592C24.0984 32.5592 24.8812 32.2613 25.477 31.6655C27.359 29.7834 29.258 27.8572 31.0945 25.9946C32.1976 24.8748 33.302 23.7563 34.4079 22.6393C35.5914 21.4449 35.5852 19.5096 34.394 18.325C33.8177 17.7517 33.0535 17.4366 32.2409 17.4366ZM33.2485 21.4903C32.1417 22.6084 31.0362 23.7278 29.9321 24.8486C28.0977 26.7092 26.2008 28.6333 24.3229 30.5112C23.7675 31.0666 22.8638 31.0666 22.3087 30.5112L17.3448 25.5472C16.7895 24.992 16.7895 24.0884 17.3448 23.533C17.4767 23.4004 17.6337 23.2952 17.8065 23.2236C17.9794 23.1521 18.1647 23.1155 18.3518 23.116C18.7322 23.116 19.09 23.2641 19.3589 23.533L22.7337 26.908C22.8868 27.061 23.0944 27.147 23.3108 27.147H23.3129C23.4204 27.1467 23.5268 27.1252 23.6259 27.0837C23.7251 27.0422 23.8151 26.9815 23.8908 26.9051L31.2354 19.4873C31.366 19.3548 31.5216 19.2495 31.6932 19.1776C31.8648 19.1057 32.049 19.0687 32.2351 19.0686H32.2408C32.6192 19.0686 32.9749 19.2153 33.2432 19.482C33.7972 20.0333 33.7997 20.9341 33.2485 21.4903Z" fill="#010101"/>
</svg>
